<svg width="24" height="24" viewBox="0 0 24 24" fill="none" xmlns="http://www.w3.org/2000/svg">
<path d="M13.6542 6.72949C13.8828 5.7697 14.2992 4.88398 14.8709 4.14113C15.7034 3.2022 16.8012 3.2022 17.3639 4.18357C17.5649 4.59423 17.6881 5.04989 17.7252 5.52018C17.7536 5.91909 17.7536 6.31993 17.7252 6.71884C18.1549 6.69249 18.5855 6.69249 19.0152 6.71884C19.6699 6.71349 20.2649 7.15939 20.5293 7.854C20.7855 8.58071 20.5293 9.20118 20.0718 9.73687C19.157 10.7977 17.8854 11.0418 16.6594 11.2964C16.0053 11.4344 15.3238 11.466 14.6559 11.5828C14.3506 11.6313 14.1369 11.9575 14.1786 12.3116C14.1828 12.3469 14.1895 12.3817 14.1985 12.4155C14.2411 12.7844 14.5333 13.0432 14.8514 12.994C14.8517 12.9938 14.8521 12.9938 14.8526 12.9938C15.8132 12.8876 16.7693 12.7921 17.7115 12.5747C19.0106 12.2777 20.2869 11.8375 21.1879 10.6598C21.9421 9.79993 22.1973 8.51068 21.8421 7.3554C21.4776 6.22317 20.5916 5.42789 19.555 5.3028C19.1752 5.21787 19.0472 5.07993 18.9832 4.69275C18.7842 3.20726 17.7159 2.0859 16.4216 2.00353C15.04 1.93672 13.755 2.82317 13.1464 4.26307C13.1464 4.26307 13.0092 4.49645 13 4.51766L13.6542 6.72949Z" fill="#303030"/>
<path d="M20.7545 12.4612C20.0641 11.8515 19.6674 11.7052 18.4041 12.0466C18.037 12.1441 17.6549 12.2612 17.1506 12.3929C17.4846 12.4701 17.8119 12.5727 18.13 12.7001C18.7411 12.9512 19.325 13.2633 19.8731 13.6315C20.4832 14.0557 20.7069 14.8505 20.4068 15.5286C20.0078 16.186 19.271 16.5633 18.5021 16.504C18.1324 16.5046 17.7631 16.5242 17.3955 16.5625C17.3955 16.8795 17.4249 17.26 17.4542 17.655C17.493 18.5995 16.7555 19.3965 15.8071 19.4351C15.6749 19.4405 15.5424 19.4306 15.4124 19.4058C14.8256 19.2682 14.3169 18.9054 13.9973 18.3962C13.0571 17.0306 12.8908 15.4457 12.7243 13.8998C12.6353 12.6844 12.6549 11.4637 12.783 10.2519C12.8607 9.34258 12.8477 8.42764 12.7438 7.52088C12.5831 6.70706 12.3555 5.90783 12.0632 5.13119C11.9359 4.86788 11.8576 4.7069 11.789 4.56057C11.463 3.79738 10.937 3.13548 10.2662 2.64397C8.30766 1.32722 5.85936 2.08313 5.31105 4.42403C5.27072 4.80011 4.95125 5.08462 4.57154 5.0824C3.41634 5.267 2.47518 6.10538 2.16248 7.22828C1.78549 8.72545 2.78446 10.3152 4.41493 11.0225C4.48757 11.0585 4.56944 11.0721 4.64995 11.0615C5.34038 10.8664 6.04057 10.6664 6.8435 10.4324C6.61838 10.3544 6.49585 10.3152 6.37848 10.2666C5.79437 10.0707 5.22362 9.83775 4.66953 9.5691C3.83218 9.11559 3.37691 8.17433 3.57269 7.49166C3.76862 6.80885 4.55202 6.34061 5.55582 6.30167C5.92306 6.30167 6.28542 6.25286 6.50574 6.24309C6.54492 5.8871 6.59384 5.46774 6.6526 5.05317C6.66134 4.34917 7.09962 3.72144 7.7592 3.46819C8.46177 3.23099 9.23841 3.44572 9.71773 4.00958C10.3209 4.66161 10.7281 5.46929 10.8931 6.34061C11.3041 8.05114 11.4427 9.81526 11.3043 11.5686C11.2553 12.8854 11.1868 14.2021 11.0203 15.514C10.9278 16.685 10.4976 17.8044 9.78145 18.7376C9.30617 19.3571 8.51462 19.6477 7.74945 19.4837C7.01685 19.2309 6.53332 18.5342 6.55468 17.7622C6.54479 17.5754 6.54479 17.3882 6.55468 17.2014C6.55468 16.582 6.55468 16.5918 5.89359 16.582C5.53319 16.5941 5.17245 16.5712 4.81647 16.5138C3.514 16.2504 3.04883 15.08 3.80778 14.0364C4.43493 13.2808 5.3212 12.7838 6.29519 12.6416C7.39197 12.3976 8.52805 12.2953 9.64442 12.1539C10.134 12.0856 10.3837 11.8271 10.3544 11.4273C10.3249 11.0273 10.0459 10.7883 9.54642 10.798C9.04703 10.8078 8.67003 10.8566 8.22437 10.9151C6.64285 11.1199 5.0662 11.3785 3.70978 12.2513C2.47591 13.0122 1.78549 14.1241 2.05975 15.5628C2.33393 17.0014 3.38178 17.6599 4.79681 17.8939C5.12487 17.9427 5.1347 18.1183 5.17394 18.3377C5.43554 20.0063 7.00574 21.1476 8.68093 20.887C8.99382 20.8383 9.29743 20.7417 9.58064 20.6006C10.4844 20.1835 11.2038 19.4515 11.603 18.5425C11.4658 19.9276 11.2652 21.0492 12.6215 23C12.6215 23 13.8357 22.5465 14.5262 22.3611C12.9446 21.4247 12.6508 19.274 12.6508 19.274C13.4599 20.5482 15.0123 21.1429 16.4701 20.7371C17.7085 20.5032 18.6518 19.4967 18.8007 18.2499C18.8498 17.9671 18.9575 17.8549 19.2464 17.8256C20.0938 17.7269 20.8679 17.2993 21.4008 16.6356C22.4829 15.2556 21.9981 13.5437 20.7545 12.4612Z" fill="#303030"/>
</svg>
