<svg width="24" height="24" viewBox="0 0 24 24" fill="none" xmlns="http://www.w3.org/2000/svg">
<path d="M13.3244 4.99976C13.6168 3.99123 14.1494 3.06053 14.8808 2.27994C15.9456 1.29333 17.35 1.29333 18.0697 2.32454C18.3269 2.75606 18.4845 3.23486 18.5318 3.72904C18.5681 4.14821 18.5681 4.5694 18.5318 4.98857C19.0816 4.96088 19.6323 4.96088 20.182 4.98857C21.0195 4.98295 21.7805 5.45149 22.1187 6.18139C22.4464 6.945 22.1187 7.59699 21.5336 8.15988C20.3634 9.27463 18.7367 9.53113 17.1686 9.79865C16.3318 9.9436 15.4601 9.97684 14.6058 10.0996C14.2152 10.1505 13.9419 10.4933 13.9952 10.8654C14.0006 10.9024 14.0091 10.939 14.0207 10.9746C14.0751 11.3621 14.4489 11.6341 14.8558 11.5824L14.8574 11.5822C16.0861 11.4707 17.3091 11.3703 18.5144 11.1418C20.1761 10.8297 21.8087 10.3672 22.9612 9.1297C23.926 8.22614 24.2524 6.87142 23.798 5.65746C23.3318 4.46773 22.1984 3.63206 20.8724 3.50061C20.3867 3.41137 20.2229 3.26642 20.1411 2.85958C19.8865 1.29864 18.52 0.120339 16.8644 0.0337817C15.0971 -0.0364206 13.4533 0.895046 12.6748 2.40808C12.6748 2.40808 12.4993 2.65331 12.4876 2.6756L13.3244 4.99976Z" fill="#176967"/>
<path d="M22.4113 11.9556C21.5863 11.2588 21.1123 11.0917 19.6027 11.4818C19.1639 11.5933 18.7074 11.7271 18.1047 11.8776C18.5038 11.9658 18.895 12.0831 19.2751 12.2286C20.0053 12.5157 20.7032 12.8723 21.3581 13.2932C22.0872 13.7779 22.3544 14.6863 21.9959 15.4613C21.5191 16.2126 20.6386 16.6437 19.7198 16.576C19.278 16.5767 18.8367 16.5991 18.3974 16.6429C18.3974 17.0051 18.4325 17.44 18.4675 17.8914C18.5139 18.9708 17.6326 19.8818 16.4992 19.9258C16.3412 19.932 16.1829 19.9207 16.0276 19.8923C15.3264 19.735 14.7185 19.3204 14.3366 18.7385C13.2131 17.1778 13.0143 15.3665 12.8154 13.5998C12.709 12.2108 12.7325 10.8156 12.8855 9.43075C12.9784 8.39152 12.9628 7.34588 12.8387 6.30958C12.6466 5.3795 12.3746 4.46609 12.0254 3.5785C11.8732 3.27758 11.7797 3.0936 11.6977 2.92637C11.3081 2.05415 10.6796 1.2977 9.87798 0.735969C7.53756 -0.768889 4.61188 0.0950039 3.95665 2.77032C3.90846 3.20013 3.5267 3.52528 3.07295 3.52274C1.69251 3.73371 0.567829 4.69186 0.194156 5.97518C-0.256339 7.68623 0.937419 9.50311 2.8858 10.3115C2.97261 10.3526 3.07044 10.3681 3.16665 10.356C3.9917 10.133 4.82842 9.90446 5.78791 9.63701C5.51889 9.54785 5.37247 9.50311 5.23221 9.44749C4.53421 9.22363 3.85218 8.95743 3.19005 8.6504C2.18943 8.1321 1.64538 7.05638 1.87934 6.27618C2.11347 5.49583 3.04962 4.9607 4.24915 4.9162C4.68799 4.9162 5.12101 4.86041 5.38429 4.84924C5.4311 4.4424 5.48957 3.96314 5.55978 3.48934C5.57022 2.68477 6.09396 1.96736 6.88216 1.67793C7.72171 1.40685 8.64978 1.65225 9.22257 2.29666C9.94332 3.04184 10.43 3.96491 10.6271 4.9607C11.1182 6.91559 11.2839 8.93172 11.1185 10.9356C11.0599 12.4404 10.978 13.9453 10.7792 15.4446C10.6686 16.7829 10.1545 18.0622 9.29871 19.1287C8.73076 19.8366 7.78487 20.1688 6.87051 19.9814C5.99506 19.6925 5.41725 18.8962 5.44277 18.014C5.43095 17.8005 5.43095 17.5866 5.44277 17.373C5.44277 16.6652 5.44277 16.6764 4.65277 16.6652C4.22211 16.6789 3.79103 16.6528 3.36564 16.5871C1.80921 16.2862 1.25333 14.9485 2.16027 13.7559C2.9097 12.8923 3.96878 12.3244 5.13268 12.1618C6.44332 11.883 7.80091 11.766 9.13496 11.6044C9.72005 11.5264 10.0184 11.231 9.98333 10.774C9.94811 10.3169 9.6147 10.0438 9.01786 10.0549C8.42109 10.0661 7.97058 10.1219 7.43803 10.1887C5.54813 10.4228 3.66406 10.7182 2.04316 11.7158C0.56871 12.5854 -0.256339 13.8561 0.0714003 15.5003C0.399044 17.1445 1.65121 17.897 3.34214 18.1645C3.73417 18.2202 3.74592 18.4209 3.79281 18.6716C4.10541 20.5786 5.98178 21.883 7.98361 21.5852C8.35751 21.5295 8.72032 21.4191 9.05875 21.2578C10.1387 20.7812 10.9984 19.9445 11.4754 18.9057C11.3115 20.4887 11.0718 21.7705 12.6925 24C12.6925 24 14.1434 23.4817 14.9686 23.2698C13.0786 22.1997 12.7275 19.7417 12.7275 19.7417C13.6944 21.1979 15.5496 21.8776 17.2915 21.4139C18.7715 21.1466 19.8987 19.9962 20.0766 18.5713C20.1352 18.2481 20.2639 18.1198 20.6091 18.0864C21.6218 17.9736 22.5468 17.4849 23.1837 16.7265C24.4767 15.1492 23.8975 13.1928 22.4113 11.9556Z" fill="#176967"/>
</svg>
